<svg id="Livello_4" data-name="Livello 4" xmlns="http://www.w3.org/2000/svg" viewBox="0 0 350 350"><defs><style>.cls-1{fill:#fff;}.cls-2{fill:#c1c2bd;}.cls-3{fill:#dbc43a;}.cls-4{fill:#c64036;}.cls-5{fill:#373a41;}.cls-6{fill:none;}.cls-7{fill:#43474f;}.cls-8{fill:#559bd9;}.cls-9{fill:#dbc99c;}.cls-10{fill:#ddc37a;}.cls-11{fill:#f4f4f4;}</style></defs><title>mysicilbus</title><path class="cls-1" d="M350,175A175.11,175.11,0,1,1,284.33,38.35,175,175,0,0,1,350,175Z"/><path class="cls-2" d="M346.23,189.41,226.88,299a4,4,0,0,1-5.33.29l-65.76-49.13c-3.48-2.6-3.1-9.68.61-12.34l80.91-58c3.09-2.21,3-7.91-.16-10.28l-93.4-70.55,0,0L91.21,59.32c-2.53-1.91-1.34-6.51,2-7.77L216.28,4.9a174.27,174.27,0,0,1,68,33.45L215,72.44c-2.93,1.45-3.27,6-.57,8l78.47,59.6.14-.1,51.67,39.25C348,181.66,348.78,187.07,346.23,189.41Z"/><path class="cls-3" d="M64,166v19c-10.56-3.42-21.11,3.42-31.67,0V166C42.89,169.42,53.44,162.58,64,166Z"/><path class="cls-4" d="M64,166v19l-.06,0c-10.54-9.71-21.07-9.24-31.6-19C42.89,169.42,53.45,162.58,64,166Z"/><path class="cls-5" d="M63.65,165h.69a.65.65,0,0,1,.65.65V193a0,0,0,0,1,0,0H63a0,0,0,0,1,0,0V165.65A.65.65,0,0,1,63.65,165Z"/><path class="cls-6" d="M239.5,335.5H56.5v-186h183Z"/><path class="cls-7" d="M90.88,302.88h33.25v12.63a9.15,9.15,0,0,1-9.15,9.15H100a9.15,9.15,0,0,1-9.14-9.15Z"/><path class="cls-7" d="M171.88,302.88h33.25v12.63a9.15,9.15,0,0,1-9.15,9.15H181a9.15,9.15,0,0,1-9.14-9.15Z"/><path class="cls-8" d="M239.5,195v23a4.49,4.49,0,0,1-4.5,4.5h-8.5V296a7,7,0,0,1-7,7H76.47a7,7,0,0,1-7-7V222.5H61a4.49,4.49,0,0,1-4.5-4.5V195a4.49,4.49,0,0,1,4.5-4.5h8.5V145c0-5.8,35.15-10.5,78.5-10.5s78.5,4.7,78.5,10.5v45.5H235A4.49,4.49,0,0,1,239.5,195Z"/><circle class="cls-9" cx="87" cy="269" r="5"/><circle class="cls-10" cx="105" cy="269" r="10"/><circle class="cls-9" cx="203" cy="269" r="5"/><circle class="cls-10" cx="185" cy="269" r="10"/><path class="cls-1" d="M208.25,170v66a12,12,0,0,1-12,12H99.75a12,12,0,0,1-12-12V170a12,12,0,0,1,12-12h96.5A12,12,0,0,1,208.25,170Z"/><path class="cls-11" d="M206.21,242.67a12,12,0,0,1-10,5.33H99.75a12,12,0,0,1-12-12V170a12,12,0,0,1,12-12h21.78Z"/><path class="cls-5" d="M69,286H227a0,0,0,0,1,0,0v13a5,5,0,0,1-5,5H74a5,5,0,0,1-5-5V286A0,0,0,0,1,69,286Z"/></svg>